<svg width="24" height="25" viewBox="0 0 24 25" fill="none"
    xmlns="http://www.w3.org/2000/svg">
    <path d="M12 23.75C18.2132 23.75 23.25 18.7132 23.25 12.5C23.25 6.2868 18.2132 1.25 12 1.25C5.7868 1.25 0.75 6.2868 0.75 12.5C0.75 18.7132 5.7868 23.75 12 23.75Z" stroke="black" stroke-width="1.5" stroke-linecap="round" stroke-linejoin="round"/>
    <path d="M11.1338 9.67375L15.75 8.75L14.8262 13.3662C14.7296 13.8501 14.4918 14.2945 14.1431 14.6435C13.7943 14.9925 13.35 15.2305 12.8662 15.3275L8.25 16.25L9.17375 11.6338C9.27067 11.1501 9.50848 10.706 9.85724 10.3572C10.206 10.0085 10.6501 9.77067 11.1338 9.67375Z" stroke="black" stroke-width="1.5" stroke-linecap="round" stroke-linejoin="round"/>
</svg>
