<svg width="64" height="49" viewBox="0 0 64 49" fill="none"
    xmlns="http://www.w3.org/2000/svg">
    <g clip-path="url(#clip0_1_177)">
        <path d="M14.5455 48.2637V23.6644L6.87675 16.685L0 12.8119V43.9226C0 46.3246 1.95625 48.2637 4.36375 48.2637H14.5455Z" fill="#4285F4"/>
        <path d="M49.4545 48.2637H59.6362C62.051 48.2637 64 46.3174 64 43.9226V12.8121L56.211 17.2483L49.4545 23.6644V48.2637Z" fill="#34A853"/>
        <path d="M14.5455 23.6644L13.502 14.0527L14.5455 4.85332L32 17.8765L49.4545 4.85332L50.6218 13.556L49.4545 23.6644L32 36.6875L14.5455 23.6644Z" fill="#EA4335"/>
        <path d="M49.4545 4.85333V23.6644L64 12.8119V7.02377C64 1.65548 57.84 -1.40483 53.5275 1.81465L49.4545 4.85333Z" fill="#FBBC04"/>
        <path d="M0 12.8119L6.68975 17.8034L14.5455 23.6644V4.85336L10.4725 1.81469C6.1525 -1.40504 0 1.65552 0 7.02356V12.8117V12.8119Z" fill="#C5221F"/>
    </g>
    <defs>
        <clipPath id="clip0_1_177">
            <rect width="64" height="48" fill="white" transform="translate(0 0.5)"/>
        </clipPath>
    </defs>
</svg>
