<svg width="55" height="55" viewBox="0 0 55 55" fill="none"
    xmlns="http://www.w3.org/2000/svg">
    <g clip-path="url(#clip0_1_55)">
        <path d="M27.5 0C12.0085 0 0 11.3476 0 26.675C0 34.6923 3.28561 41.62 8.63672 46.4052C9.08574 46.8071 9.35688 47.3705 9.37535 47.9731L9.5251 52.8651C9.57301 54.4253 11.1846 55.4406 12.6124 54.8103L18.0707 52.4004C18.5333 52.1964 19.0522 52.1584 19.5396 52.2928C22.0479 52.9824 24.7173 53.3498 27.5 53.3498C42.9915 53.3498 55 42.0022 55 26.6748C55 11.3474 42.9915 0 27.5 0Z" fill="url(#paint0_radial_1_55)"/>
        <path d="M10.9865 34.476L19.0646 21.6599C20.3494 19.621 23.1011 19.1134 25.0291 20.5593L31.454 25.3782C31.7409 25.5934 32.0902 25.7093 32.4488 25.7082C32.8075 25.7072 33.156 25.5893 33.4417 25.3724L42.1188 18.787C43.2768 17.9081 44.7889 19.294 44.0137 20.524L35.9356 33.3403C34.6506 35.379 31.8987 35.8866 29.9709 34.4407L23.5458 29.6218C23.2589 29.4067 22.9097 29.2909 22.5512 29.292C22.1926 29.293 21.8441 29.4108 21.5585 29.6276L12.881 36.213C11.7229 37.0917 10.2111 35.706 10.9865 34.476Z" fill="white"/>
    </g>
    <defs>
        <radialGradient id="paint0_radial_1_55" cx="0" cy="0" r="1" gradientUnits="userSpaceOnUse" gradientTransform="translate(1058.58 5470.57) scale(5992.8 5992.8)">
            <stop stop-color="#0099FF"/>
            <stop offset="0.60975" stop-color="#A033FF"/>
            <stop offset="0.93482" stop-color="#FF5280"/>
            <stop offset="1" stop-color="#FF7061"/>
        </radialGradient>
        <clipPath id="clip0_1_55">
            <rect width="55" height="55" fill="white"/>
        </clipPath>
    </defs>
</svg>
