<svg width="54" height="55" viewBox="0 0 54 55" fill="none"
    xmlns="http://www.w3.org/2000/svg">
    <g clip-path="url(#clip0_1_183)">
        <path d="M27 0.5C19.8408 0.5 12.9684 3.34639 7.91016 8.40805C2.84666 13.4717 0.00140261 20.339 0 27.5C0 34.658 2.84766 41.5303 7.91016 46.592C12.9684 51.6536 19.8408 54.5 27 54.5C34.1592 54.5 41.0316 51.6536 46.0898 46.592C51.1523 41.5303 54 34.658 54 27.5C54 20.342 51.1523 13.4697 46.0898 8.40805C41.0316 3.34639 34.1592 0.5 27 0.5Z" fill="url(#paint0_linear_1_183)"/>
        <path d="M12.2217 27.2148C20.0939 23.7858 25.342 21.525 27.9661 20.4328C35.467 17.3138 37.0237 16.7721 38.0405 16.7538C38.2641 16.7502 38.7619 16.8055 39.0867 17.0681C39.3567 17.2896 39.4326 17.5891 39.4706 17.7994C39.5044 18.0095 39.5508 18.4883 39.5128 18.8621C39.1078 23.1315 37.3486 33.4919 36.4542 38.2738C36.0787 40.2972 35.332 40.9755 34.6106 41.0418C33.0412 41.186 31.8516 40.0056 30.3328 39.0104C27.9576 37.4525 26.6161 36.483 24.3084 34.963C21.6422 33.2063 23.3719 32.2406 24.8906 30.6628C25.2872 30.2498 32.1975 23.966 32.3283 23.396C32.3451 23.3247 32.362 23.0589 32.2017 22.9189C32.0456 22.7784 31.8136 22.8265 31.6448 22.8644C31.4044 22.9184 27.6117 25.4278 20.2542 30.392C19.1784 31.1319 18.2039 31.4926 17.3264 31.4736C16.3645 31.453 14.5083 30.9286 13.1287 30.4805C11.4412 29.9308 10.0955 29.6402 10.2136 28.7066C10.2726 28.2206 10.9434 27.7232 12.2217 27.2148Z" fill="white"/>
    </g>
    <defs>
        <linearGradient id="paint0_linear_1_183" x1="2700" y1="0.5" x2="2700" y2="5400.5" gradientUnits="userSpaceOnUse">
            <stop stop-color="#2AABEE"/>
            <stop offset="1" stop-color="#229ED9"/>
        </linearGradient>
        <clipPath id="clip0_1_183">
            <rect width="54" height="54" fill="white" transform="translate(0 0.5)"/>
        </clipPath>
    </defs>
</svg>
