<svg width="54" height="55" viewBox="0 0 54 55" fill="none"
    xmlns="http://www.w3.org/2000/svg">
    <g clip-path="url(#clip0_1_172)">
        <path d="M41.3438 0.5H12.6562C5.6664 0.5 0 6.1664 0 13.1562V41.8438C0 48.8336 5.6664 54.5 12.6562 54.5H41.3438C48.3336 54.5 54 48.8336 54 41.8438V13.1562C54 6.1664 48.3336 0.5 41.3438 0.5Z" fill="white"/>
        <path d="M41.3438 0.5H12.6562C5.6664 0.5 0 6.1664 0 13.1562V41.8438C0 48.8336 5.6664 54.5 12.6562 54.5H41.3438C48.3336 54.5 54 48.8336 54 41.8438V13.1562C54 6.1664 48.3336 0.5 41.3438 0.5Z" fill="#1D9BF0"/>
        <path d="M42.0972 19.782C42.1204 20.1168 42.1204 20.4515 42.1204 20.7894C42.1204 31.0826 34.2845 42.9537 19.9562 42.9537V42.9474C15.7233 42.9535 11.5782 41.7412 8.01562 39.4553C8.63114 39.5293 9.24961 39.5663 9.86977 39.5677C13.378 39.5705 16.7853 38.3938 19.5442 36.2267C17.9187 36.196 16.3435 35.658 15.0387 34.6881C13.7339 33.7182 12.7648 32.3649 12.2669 30.8172C13.4339 31.0422 14.6371 30.9963 15.7836 30.683C12.1496 29.9488 9.53501 26.7558 9.53501 23.0475V22.9488C10.6184 23.5522 11.8308 23.8866 13.0703 23.9238C9.64765 21.6361 8.59254 17.0826 10.6593 13.5224C12.615 15.929 15.055 17.8973 17.8209 19.2994C20.5869 20.7015 23.6168 21.5061 26.714 21.6608C26.4052 20.3316 26.4508 18.9446 26.8462 17.6385C27.2417 16.3324 27.9731 15.153 28.9674 14.2183C32.1049 11.269 37.0394 11.4202 39.9887 14.556C41.7331 14.2116 43.406 13.5721 44.9354 12.665C44.3538 14.4686 43.1369 15.9996 41.511 16.9732C43.0552 16.7912 44.5632 16.3779 45.9844 15.747C44.939 17.3126 43.6226 18.6788 42.0972 19.782Z" fill="white"/>
    </g>
    <defs>
        <clipPath id="clip0_1_172">
            <rect width="54" height="54" fill="white" transform="translate(0 0.5)"/>
        </clipPath>
    </defs>
</svg>
