<svg width="65" height="65" viewBox="0 0 65 65" fill="none"
    xmlns="http://www.w3.org/2000/svg">
    <g clip-path="url(#clip0_1_165)">
        <path d="M1.3871 32.111C1.38558 37.5723 2.8237 42.9048 5.55828 47.6049L1.12558 63.664L17.6884 59.3548C22.2694 61.8294 27.4022 63.126 32.6181 63.1263H32.6318C49.8504 63.1263 63.8668 49.2236 63.8742 32.1354C63.8775 23.855 60.6305 16.0686 54.7313 10.2105C48.833 4.35298 40.9886 1.12541 32.6305 1.12163C15.4098 1.12163 1.39447 15.0236 1.38736 32.111" fill="url(#paint0_linear_1_165)"/>
        <path d="M0.27168 32.1009C0.269902 37.7587 1.75957 43.2819 4.59164 48.1504L0 64.7851L17.1567 60.3215C21.8839 62.8789 27.2063 64.2273 32.6221 64.2293H32.6361C50.4725 64.2293 64.9924 49.8265 65 32.1266C65.003 23.5486 61.6393 15.4823 55.5293 9.41442C49.4185 3.34725 41.2935 0.00352713 32.6361 0C14.7966 0 0.278789 14.4008 0.27168 32.1009ZM10.4889 47.3119L9.84826 46.3029C7.15533 42.0542 5.73396 37.1445 5.736 32.1029C5.74184 17.391 17.8085 5.42171 32.6463 5.42171C39.8318 5.42473 46.5847 8.20411 51.6638 13.2469C56.7427 18.2902 59.5375 24.9943 59.5357 32.1246C59.5291 46.8365 47.4622 58.8074 32.6361 58.8074H32.6254C27.7979 58.8048 23.0633 57.5184 18.9343 55.0875L17.9517 54.5093L7.77055 57.1579L10.4889 47.3117V47.3119Z" fill="url(#paint1_linear_1_165)"/>
        <path d="M24.5472 18.6807C23.9413 17.3447 23.3038 17.3177 22.7277 17.2943C22.2559 17.2741 21.7166 17.2756 21.1778 17.2756C20.6385 17.2756 19.7623 17.4769 19.0216 18.2794C18.2802 19.0825 16.1911 21.0235 16.1911 24.9711C16.1911 28.919 19.0889 32.734 19.4929 33.2699C19.8974 33.8048 25.0872 42.1651 33.3067 45.3813C40.1378 48.0541 41.5279 47.5226 43.0105 47.3885C44.4933 47.255 47.7951 45.4481 48.4687 43.5744C49.1428 41.701 49.1428 40.0952 48.9407 39.7596C48.7386 39.4253 48.1993 39.2245 47.3906 38.8234C46.5816 38.4221 42.606 36.4809 41.8648 36.2131C41.1234 35.9455 40.5844 35.812 40.0451 36.6154C39.5058 37.4176 37.9572 39.2245 37.4852 39.7596C37.0137 40.296 36.5417 40.3627 35.7332 39.9614C34.924 39.5588 32.3197 38.7125 29.2299 35.9793C26.826 33.8524 25.203 31.2259 24.7312 30.4225C24.2595 29.6203 24.6807 29.1855 25.0862 28.7857C25.4495 28.4262 25.8951 27.8487 26.2999 27.3804C26.7031 26.9118 26.8376 26.5774 27.1073 26.0423C27.3772 25.5067 27.2421 25.0381 27.0403 24.6368C26.8376 24.2354 25.2662 20.2672 24.5472 18.6807Z" fill="white"/>
    </g>
    <defs>
        <linearGradient id="paint0_linear_1_165" x1="3138.56" y1="6255.36" x2="3138.56" y2="1.12163" gradientUnits="userSpaceOnUse">
            <stop stop-color="#1FAF38"/>
            <stop offset="1" stop-color="#60D669"/>
        </linearGradient>
        <linearGradient id="paint1_linear_1_165" x1="3250" y1="6478.51" x2="3250" y2="0" gradientUnits="userSpaceOnUse">
            <stop stop-color="#F9F9F9"/>
            <stop offset="1" stop-color="white"/>
        </linearGradient>
        <clipPath id="clip0_1_165">
            <rect width="65" height="65" fill="white"/>
        </clipPath>
    </defs>
</svg>